<svg width="24" height="24" viewBox="0 0 24 24" fill="none" xmlns="http://www.w3.org/2000/svg">
<path fill-rule="evenodd" clip-rule="evenodd" d="M18 2C18.7956 2 19.5587 2.31607 20.1213 2.87868C20.6839 3.44129 21 4.20435 21 5V19C21 19.7956 20.6839 20.5587 20.1213 21.1213C19.5587 21.6839 18.7956 22 18 22H12C11.2044 22 10.4413 21.6839 9.87868 21.1213C9.31607 20.5587 9 19.7956 9 19V5C9 4.20435 9.31607 3.44129 9.87868 2.87868C10.4413 2.31607 11.2044 2 12 2H18ZM7.707 7.293C7.51947 7.10553 7.26516 7.00021 7 7.00021C6.73484 7.00021 6.48053 7.10553 6.293 7.293L2.293 11.293C2.10553 11.4805 2.00021 11.7348 2.00021 12C2.00021 12.2652 2.10553 12.5195 2.293 12.707L6.293 16.707C6.4816 16.8892 6.7342 16.99 6.9964 16.9877C7.2586 16.9854 7.50941 16.8802 7.69482 16.6948C7.88023 16.5094 7.9854 16.2586 7.98767 15.9964C7.98995 15.7342 7.88916 15.4816 7.707 15.293L5.414 13H14C14.2652 13 14.5196 12.8946 14.7071 12.7071C14.8946 12.5196 15 12.2652 15 12C15 11.7348 14.8946 11.4804 14.7071 11.2929C14.5196 11.1054 14.2652 11 14 11H5.414L7.707 8.707C7.89447 8.51947 7.99979 8.26516 7.99979 8C7.99979 7.73484 7.89447 7.48053 7.707 7.293Z" fill="#94AEFF"/>
</svg>
