<svg width="23" height="19" viewBox="0 0 23 19" fill="none" xmlns="http://www.w3.org/2000/svg">
<path d="M4.4876 4.5C4.4876 6.981 6.50104 9 8.9752 9C11.4494 9 13.4628 6.981 13.4628 4.5C13.4628 2.019 11.4494 0 8.9752 0C6.50104 0 4.4876 2.019 4.4876 4.5ZM16.9532 19H17.9504V18C17.9504 14.141 14.8181 11 10.9697 11H6.98071C3.13135 11 0 14.141 0 18V19H16.9532Z" fill="#94AEFF"/>
<path fill-rule="evenodd" clip-rule="evenodd" d="M16.8364 12.8309V18.0509H22.1199L22.1195 12.8309H16.8364ZM22.1196 19H16.8366C16.351 19 15.9561 18.5743 15.9561 18.0509V12.8309C15.9561 12.3075 16.351 11.8818 16.8366 11.8818H22.1196C22.6052 11.8818 23.0001 12.3075 23.0001 12.8309V18.0509C23.0001 18.5743 22.6052 19 22.1196 19Z" fill="#94AEFF"/>
<path fill-rule="evenodd" clip-rule="evenodd" d="M22.1193 14.9683H16.8363C16.5928 14.9683 16.396 14.7707 16.396 14.5273C16.396 14.284 16.5928 14.0864 16.8363 14.0864H22.1193C22.3628 14.0864 22.5596 14.284 22.5596 14.5273C22.5596 14.7707 22.3628 14.9683 22.1193 14.9683Z" fill="#94AEFF"/>
<path fill-rule="evenodd" clip-rule="evenodd" d="M18.1571 13.6455C17.9136 13.6455 17.7168 13.448 17.7168 13.2046V11.4409C17.7168 11.1975 17.9136 11 18.1571 11C18.4005 11 18.5973 11.1975 18.5973 11.4409V13.2046C18.5973 13.448 18.4005 13.6455 18.1571 13.6455Z" fill="#94AEFF"/>
<path fill-rule="evenodd" clip-rule="evenodd" d="M20.7987 13.6455C20.5552 13.6455 20.3584 13.448 20.3584 13.2046V11.4409C20.3584 11.1975 20.5552 11 20.7987 11C21.0421 11 21.2389 11.1975 21.2389 11.4409V13.2046C21.2389 13.448 21.0421 13.6455 20.7987 13.6455Z" fill="#94AEFF"/>
</svg>
