<svg width="24" height="24" viewBox="0 0 24 24" fill="none" xmlns="http://www.w3.org/2000/svg">
<path d="M1 1V11H23V1H1ZM13 7H4V5H13V7ZM16 7C15.8022 7 15.6089 6.94135 15.4444 6.83147C15.28 6.72159 15.1518 6.56541 15.0761 6.38268C15.0004 6.19996 14.9806 5.99889 15.0192 5.80491C15.0578 5.61093 15.153 5.43275 15.2929 5.29289C15.4327 5.15304 15.6109 5.0578 15.8049 5.01921C15.9989 4.98063 16.2 5.00043 16.3827 5.07612C16.5654 5.15181 16.7216 5.27998 16.8315 5.44443C16.9414 5.60888 17 5.80222 17 6C17 6.26522 16.8946 6.51957 16.7071 6.70711C16.5196 6.89464 16.2652 7 16 7ZM19 7C18.8022 7 18.6089 6.94135 18.4444 6.83147C18.28 6.72159 18.1518 6.56541 18.0761 6.38268C18.0004 6.19996 17.9806 5.99889 18.0192 5.80491C18.0578 5.61093 18.153 5.43275 18.2929 5.29289C18.4327 5.15304 18.6109 5.0578 18.8049 5.01921C18.9989 4.98063 19.2 5.00043 19.3827 5.07612C19.5654 5.15181 19.7216 5.27998 19.8315 5.44443C19.9414 5.60888 20 5.80222 20 6C20 6.26522 19.8946 6.51957 19.7071 6.70711C19.5196 6.89464 19.2652 7 19 7ZM22.69 18.37L23.83 17.37L22.83 15.64L21.38 16.13C21.0589 15.8594 20.6936 15.6463 20.3 15.5L20 14H18L17.7 15.49C17.3064 15.6362 16.941 15.8494 16.62 16.12L15.17 15.63L14.17 17.36L15.31 18.36C15.23 18.7762 15.23 19.2038 15.31 19.62L14.17 20.62L15.17 22.35L16.62 21.86C16.941 22.1306 17.3064 22.3438 17.7 22.49L18 24H20L20.3 22.51C20.6936 22.3638 21.059 22.1506 21.38 21.88L22.83 22.37L23.83 20.64L22.69 19.64C22.77 19.2204 22.77 18.7896 22.69 18.37V18.37ZM19 21C18.6044 21 18.2178 20.8827 17.8889 20.6629C17.56 20.4432 17.3036 20.1308 17.1522 19.7654C17.0009 19.3999 16.9613 18.9978 17.0384 18.6098C17.1156 18.2219 17.3061 17.8655 17.5858 17.5858C17.8655 17.3061 18.2219 17.1156 18.6098 17.0384C18.9978 16.9613 19.3999 17.0009 19.7654 17.1522C20.1308 17.3036 20.4432 17.56 20.6629 17.8889C20.8827 18.2178 21 18.6044 21 19C20.9984 19.5299 20.7872 20.0377 20.4125 20.4125C20.0377 20.7872 19.5299 20.9984 19 21V21Z" fill="#94AEFF"/>
<path d="M12 19H4V17H12.294C12.7965 15.3248 13.9072 13.8981 15.408 13H1V23H13.26C12.4389 21.8279 11.9989 20.4311 12 19V19Z" fill="#94AEFF"/>
</svg>
