<svg width="24" height="24" viewBox="0 0 24 24" fill="none" xmlns="http://www.w3.org/2000/svg">
<path d="M23.9998 2.40002V21.6H0.383798C0.00219812 21.6 -0.115402 21.3492 0.124598 21.042L5.4874 14.1444C5.54116 14.0723 5.6097 14.0126 5.68844 13.9691C5.76717 13.9257 5.85428 13.8996 5.94393 13.8925C6.03357 13.8855 6.12369 13.8977 6.20825 13.9283C6.2928 13.9589 6.36984 14.0072 6.4342 14.07L8.137 15.6708C8.19839 15.7332 8.27337 15.7805 8.35608 15.809C8.43879 15.8376 8.52698 15.8467 8.61377 15.8355C8.70056 15.8244 8.78359 15.7933 8.85638 15.7448C8.92918 15.6962 8.98976 15.6315 9.0334 15.5556L12.6898 9.86762C12.7331 9.79221 12.7934 9.72793 12.8659 9.6799C12.9383 9.63186 13.021 9.60139 13.1073 9.5909C13.1937 9.58042 13.2812 9.59021 13.3631 9.6195C13.445 9.64879 13.5189 9.69677 13.579 9.75962L16.1842 12.2748C16.4626 12.5448 16.855 12.4908 17.053 12.1548L23.2126 2.81282C23.4118 2.47442 23.6998 2.40002 23.9998 2.40002Z" fill="#94AEFF"/>
</svg>
